<svg width="24" height="24" viewBox="0 0 24 24" fill="none" xmlns="http://www.w3.org/2000/svg">
<path fill-rule="evenodd" clip-rule="evenodd" d="M12 22C14.6522 22 17.1957 20.9464 19.0711 19.0711C20.9464 17.1957 22 14.6522 22 12C22 9.34784 20.9464 6.8043 19.0711 4.92893C17.1957 3.05357 14.6522 2 12 2C9.34784 2 6.8043 3.05357 4.92893 4.92893C3.05357 6.8043 2 9.34784 2 12C2 14.6522 3.05357 17.1957 4.92893 19.0711C6.8043 20.9464 9.34784 22 12 22ZM11.4438 8.46C11.2555 8.3344 11.0367 8.26226 10.8106 8.25129C10.5846 8.24031 10.3598 8.2909 10.1603 8.39766C9.96076 8.50442 9.79394 8.66335 9.67766 8.85749C9.56137 9.05163 9.49997 9.2737 9.5 9.5V14.5C9.49997 14.7263 9.56137 14.9484 9.67766 15.1425C9.79394 15.3367 9.96076 15.4956 10.1603 15.6023C10.3598 15.7091 10.5846 15.7597 10.8106 15.7487C11.0367 15.7377 11.2555 15.6656 11.4438 15.54L15.1938 13.04C15.3649 12.9258 15.5053 12.7712 15.6024 12.5898C15.6995 12.4083 15.7503 12.2058 15.7503 12C15.7503 11.7942 15.6995 11.5917 15.6024 11.4102C15.5053 11.2288 15.3649 11.0742 15.1938 10.96L11.4438 8.46Z" fill="#805AD5"/>
</svg>
